<?xml version="1.0" encoding="UTF-8"?>
<svg version="1.1" xmlns="http://www.w3.org/2000/svg" width="512" height="512">
<path d="M0 0 C4.32196986 3.54542718 6.19438147 6.13519487 7.71484375 11.578125 C7.96640015 14.67982483 7.96640015 14.67982483 7.97021484 18.01977539 C7.97717377 19.27871109 7.98413269 20.53764679 7.99130249 21.83473206 C7.99062145 22.50072481 7.98994041 23.16671757 7.98923874 23.85289192 C7.98826469 25.96164225 8.00132166 28.06989489 8.01821899 30.17857361 C8.06420198 36.17101121 8.08904503 42.16339767 8.09570312 48.15600586 C8.10077123 51.83307587 8.12528896 55.50962816 8.16102982 59.18652153 C8.17071097 60.5740794 8.17322494 61.96170959 8.16785812 63.34929085 C8.11260912 78.34701998 11.44247893 91.09743723 21.453125 102.5703125 C38.35127505 118.85332647 60.90906751 116.8733201 82.6015625 116.83691406 C85.31979705 116.83852838 88.03802486 116.84311867 90.7562561 116.84753418 C97.34575573 116.85638335 103.93520955 116.85452626 110.52471089 116.8487089 C115.8846723 116.84417468 121.24462096 116.84358708 126.60458374 116.84575653 C127.37019519 116.846063 128.13580663 116.84636946 128.92461842 116.84668522 C130.48040271 116.84732473 132.036187 116.84797316 133.59197128 116.8486304 C148.14819542 116.85432058 162.70439428 116.84779646 177.26061428 116.83702967 C189.72486227 116.82809535 202.18907299 116.82964776 214.65332031 116.83886719 C229.1608291 116.84959307 243.66831578 116.85377138 258.17582798 116.84764266 C259.72558657 116.84700563 261.27534516 116.84637688 262.82510376 116.84575653 C263.96858804 116.8452937 263.96858804 116.8452937 265.13517302 116.84482153 C270.48281081 116.84310153 275.83043447 116.84599462 281.17807007 116.85071564 C287.70346827 116.8563503 294.22881842 116.85475403 300.75421119 116.84415415 C304.07752552 116.83893198 307.40069448 116.83787499 310.7240181 116.84345245 C341.66928718 117.41941969 341.66928718 117.41941969 367.9765625 102.5703125 C377.9813338 91.10417011 381.32356911 78.37156854 381.23126411 63.37985611 C381.21838393 61.27614776 381.23014129 59.17370415 381.24729919 57.07003784 C381.27371452 53.36727074 381.27960514 49.66482621 381.27819824 45.9619751 C381.27594938 40.01709888 381.29029728 34.07261732 381.3337841 28.12789536 C381.34354029 26.06772166 381.33495611 24.00818797 381.3250885 21.94802856 C381.36630168 14.41081029 381.50697295 8.75001914 386.22265625 2.6171875 C390.09697879 -0.77050515 393.25527403 -2.35605505 398.4453125 -2.5859375 C403.88999231 -2.19234619 408.03652454 -0.57644091 411.65234375 3.578125 C414.66417364 7.95896848 414.84931817 10.97071672 414.8918457 16.18237305 C414.8984169 16.84961395 414.9049881 17.51685486 414.91175842 18.20431519 C414.9314848 20.41615934 414.94316254 22.62793506 414.953125 24.83984375 C414.95720053 25.60043406 414.96127605 26.36102436 414.96547508 27.14466286 C414.98634915 31.18310905 415.00063594 35.22152129 415.01000977 39.26000977 C415.02097958 43.38949126 415.05526371 47.51841967 415.09518147 51.64770794 C415.12162963 54.8558079 415.129727 58.06378287 415.13329124 61.27198219 C415.13809777 62.79110187 415.14953701 64.31021831 415.16832924 65.82922935 C415.32575942 79.4171558 413.53346815 92.75469089 406.96484375 104.890625 C406.45050781 105.87579102 406.45050781 105.87579102 405.92578125 106.88085938 C395.37290222 126.5808507 379.13623853 140.39965767 357.77130544 146.97428071 C349.82629654 149.30719469 342.46824211 149.86790898 334.19247437 149.84555054 C332.95396811 149.85008165 331.71546186 149.85461276 330.43942511 149.85928118 C327.02256985 149.86971062 323.60592599 149.87125804 320.18906999 149.86889243 C316.49564007 149.86848269 312.80224104 149.87953844 309.10882568 149.88900757 C301.87996443 149.90558543 294.65113579 149.91111568 287.42225711 149.91223232 C281.54206548 149.91318445 275.66188456 149.91730298 269.78169632 149.92363358 C253.08824053 149.94123827 236.39481039 149.95047381 219.70134525 149.94897263 C218.80232808 149.94889272 217.9033109 149.9488128 216.97705078 149.94873047 C215.6268667 149.94860783 215.6268667 149.94860783 214.24940617 149.94848271 C199.67158369 149.94767033 185.09386466 149.96679785 170.51607208 149.9950072 C155.52609287 150.02378383 140.53616404 150.03754483 125.54615653 150.03581965 C117.13914915 150.03515733 108.73225019 150.04057984 100.32526779 150.06217575 C93.16550682 150.0804507 86.00590339 150.08468346 78.8461291 150.0711569 C75.19861802 150.06465852 71.55140862 150.06439532 67.90392685 150.0818634 C39.80771311 150.20807739 39.80771311 150.20807739 27.71484375 145.578125 C26.43510209 145.09651193 26.43510209 145.09651193 25.12950706 144.6051693 C22.90779612 143.71788108 20.83181095 142.69231826 18.71484375 141.578125 C17.79445312 141.10890625 16.8740625 140.6396875 15.92578125 140.15625 C-2.58305598 130.11269491 -16.17683998 113.39001527 -22.29949951 93.23983765 C-25.08158872 83.26801554 -25.86709303 74.01010741 -25.78125 63.6953125 C-25.78140555 62.14071587 -25.78290379 60.58611886 -25.78565979 59.03152466 C-25.78702889 55.80957422 -25.77472583 52.58807712 -25.75170898 49.36621094 C-25.72308721 45.24847045 -25.72614603 41.13146717 -25.7387991 37.01366997 C-25.74576125 33.81881447 -25.7379649 30.62412842 -25.72554207 27.42929459 C-25.72104957 25.91032689 -25.72067137 24.39134091 -25.72460747 22.87237167 C-25.72753131 20.75551787 -25.71096737 18.63967483 -25.68920898 16.52294922 C-25.683806 15.32322479 -25.67840302 14.12350037 -25.6728363 12.88742065 C-25.10277826 8.02131889 -23.47290961 4.73377692 -19.97265625 1.328125 C-13.64550177 -2.79188257 -6.66194868 -4.14521251 0 0 Z " fill="#000000" transform="translate(61.28515625,310.421875)"/>
<path d="M0 0 C0.8971875 -0.01933594 1.794375 -0.03867187 2.71875 -0.05859375 C10.18138287 1.27252195 15.55700351 8.19848027 20.6706543 13.31762695 C21.57379364 14.21404907 22.47693298 15.11047119 23.40744019 16.03405762 C25.87281434 18.48184293 28.33174089 20.9360061 30.78897452 23.39196038 C32.32665858 24.92821881 33.86575969 26.46304267 35.40537453 27.99736595 C40.78255197 33.35607025 46.1545683 38.71988615 51.52172852 44.08862305 C56.51592865 49.08402547 61.52118534 54.0681556 66.53174084 59.04714805 C70.84222106 63.33144474 75.14492212 67.62345016 79.4416917 71.92149705 C82.00417958 74.48449373 84.5696451 77.04432065 87.14298058 79.59642982 C90.01245437 82.44287491 92.86558274 85.30518345 95.7175293 88.16918945 C96.56693588 89.00735703 97.41634247 89.8455246 98.29148865 90.70909119 C103.60413629 96.07902602 106.96057034 100.19912409 107.9375 107.875 C107.19246373 113.94172394 105.2460153 118.04781435 100.4375 121.875 C95.88612066 124.29594646 92.6390697 124.85873522 87.5 124.4375 C81.50195761 122.25629778 77.20633493 118.71080548 72.80859375 114.20019531 C72.19295059 113.58513626 71.57730743 112.97007721 70.94300842 112.33638 C68.93153089 110.32213896 66.93455794 108.29415462 64.9375 106.265625 C63.53733617 104.85799265 62.13628048 103.45124692 60.734375 102.04534912 C57.06273599 98.35850207 53.40327341 94.65979882 49.74627686 90.95843506 C46.00614612 87.17724754 42.25454117 83.40748206 38.50390625 79.63671875 C31.15804156 72.24806843 23.82499892 64.84683279 16.5 57.4375 C16.49853344 58.67401873 16.49706688 59.91053745 16.49555588 61.18452644 C16.45985571 90.53543239 16.40361723 119.88622446 16.32207905 149.23703516 C16.31206156 152.84942929 16.30221744 156.46182386 16.29248047 160.07421875 C16.28956841 161.1529652 16.28956841 161.1529652 16.28659752 162.2535045 C16.25557441 173.89889391 16.23859601 185.54426361 16.22680578 197.18968655 C16.21439581 209.1385229 16.18689796 221.08725579 16.14538693 233.03602684 C16.12250314 239.74768227 16.10659939 246.45920403 16.10811615 253.17090225 C16.10885998 259.48610744 16.09102021 265.80098546 16.05883217 272.11610603 C16.05030253 274.43565314 16.04860389 276.75523682 16.05419731 279.07479286 C16.06081237 282.23914024 16.04297533 285.40243913 16.01898193 288.56668091 C16.02674235 289.4869224 16.03450277 290.40716389 16.04249835 291.35529149 C15.96815375 296.88486685 15.18190987 300.04879265 11.5 304.4375 C7.68069828 308.06583663 4.61720994 308.74750458 -0.5 308.9375 C-5.61720994 308.74750458 -8.68069828 308.06583663 -12.5 304.4375 C-16.90690834 299.18461993 -17.07424016 295.11928067 -17.01898193 288.56668091 C-17.02648319 287.57741824 -17.03398444 286.58815557 -17.041713 285.56891525 C-17.0619993 282.25683027 -17.05388536 278.94542924 -17.04589844 275.63330078 C-17.0546329 273.25805483 -17.06511823 270.88281477 -17.07722473 268.50758362 C-17.10222465 262.72911739 -17.10897037 256.95083769 -17.1076645 251.17232223 C-17.10712981 244.4470816 -17.12910757 237.72197143 -17.15247145 230.99677823 C-17.19353919 219.00404625 -17.21686198 207.01134827 -17.22900391 195.01855469 C-17.24083495 183.37040947 -17.26103657 171.72232825 -17.29248047 160.07421875 C-17.29538462 158.99678436 -17.29538462 158.99678436 -17.29834744 157.89758362 C-17.30811213 154.29404587 -17.31804122 150.69050859 -17.32805204 147.08697152 C-17.41085641 117.20384471 -17.46455731 87.32072283 -17.5 57.4375 C-18.28038635 58.22232758 -19.06077271 59.00715515 -19.86480713 59.81576538 C-27.21639437 67.20787902 -34.573244 74.59471899 -41.93529129 81.97641563 C-45.72010711 85.77167292 -49.50303821 89.56877001 -53.28173828 93.37011719 C-56.92779097 97.03788506 -60.57869373 100.70075963 -64.2330246 104.36027908 C-65.62703395 105.75798655 -67.01928048 107.15745446 -68.40973663 108.55869675 C-70.35609889 110.51955606 -72.30860933 112.47408799 -74.26269531 114.42724609 C-74.83741074 115.00915207 -75.41212616 115.59105804 -76.0042572 116.19059753 C-80.77099232 120.93286372 -83.66258218 122.72710028 -90.375 122.8125 C-95.58266907 122.71113418 -98.60580633 122.13698398 -102.5 118.4375 C-105.96909068 114.21833567 -107.40714902 110.91570753 -107.5 105.4375 C-106.10419719 97.28284792 -101.45603445 92.55088022 -95.7175293 86.92626953 C-94.81964691 86.02269211 -93.92176453 85.11911469 -92.99667358 84.18815613 C-90.54933097 81.7263616 -88.08379976 79.28358303 -85.61400199 76.84434366 C-83.02439848 74.28123195 -80.45076466 71.70217264 -77.87495422 69.12521362 C-73.54992802 64.80299028 -69.21348248 60.49250359 -64.86938477 56.18945312 C-59.85435846 51.22164076 -54.85522329 46.23828398 -49.86485165 41.24571335 C-44.53878228 35.91761449 -39.20134695 30.60101431 -33.86051583 25.28771734 C-32.3274064 23.76098688 -30.79642599 22.23214896 -29.26590538 20.70282364 C-26.40974497 17.85024865 -23.540989 15.01067522 -20.6706543 12.17236328 C-19.8273204 11.32766983 -18.98398651 10.48297638 -18.11509705 9.61268616 C-12.64959758 4.23610867 -8.03497841 0.01154451 0 0 Z " fill="#000000" transform="translate(256.5,51.5625)"/>
</svg>
