<?xml version="1.0" encoding="UTF-8"?>
<svg version="1.1" xmlns="http://www.w3.org/2000/svg" width="512" height="512">
<path d="M0 0 C1.70713266 0.72507524 3.41524956 1.44783686 5.12426758 2.16845703 C8.75530183 3.70189034 12.38171594 5.24560024 16.00537109 6.79638672 C24.44757854 10.40020029 32.94020822 13.88204623 41.42874146 17.37493896 C44.33230849 18.57065734 47.23459845 19.76942264 50.13647461 20.96923828 C67.97209741 28.34330567 85.83558721 35.64865711 103.70175171 42.94833374 C114.54444689 47.37916598 125.38073382 51.82560814 136.21606445 56.27441406 C137.80419467 56.92644337 139.39232943 57.5784616 140.98046875 58.23046875 C141.76543228 58.55274445 142.55039581 58.87502014 143.35914612 59.20706177 C149.23354557 61.61814974 155.11056058 64.02280277 160.98828125 66.42578125 C168.40981935 69.46007745 175.82753971 72.503479 183.24021912 75.55935669 C187.65283048 77.37815229 192.07100585 79.1825748 196.4921875 80.98046875 C198.37022698 81.7567602 200.24787786 82.53399298 202.125 83.3125 C203.31536865 83.78901001 203.31536865 83.78901001 204.52978516 84.27514648 C210.2513072 86.68027883 216.02881161 89.68228811 218.69793987 95.54366398 C220.03292194 100.79084871 219.90350045 105.85694317 219.88569641 111.25108337 C219.88952196 112.47633667 219.89334751 113.70158997 219.89728898 114.96397215 C219.9058157 118.35744827 219.90538784 121.75070746 219.90110838 125.14417732 C219.89864073 128.80682824 219.90765578 132.46945374 219.91514587 136.13209534 C219.92789357 143.3045447 219.9296865 150.47695664 219.92734561 157.64941543 C219.92556246 163.47921314 219.92731203 169.3089995 219.93157005 175.13879585 C219.93216524 175.96857022 219.93276043 176.7983446 219.93337366 177.65326365 C219.93458541 179.33895433 219.93579954 181.024645 219.93701603 182.71033568 C219.94789173 198.51767652 219.94572887 214.32499602 219.93963119 230.13233805 C219.93446135 244.59287422 219.94571917 259.05334304 219.96472941 273.51386588 C219.98410159 288.36358897 219.99236494 303.21328019 219.98860615 318.063016 C219.98669325 326.39936798 219.9891904 334.73566264 220.00332069 343.07200432 C220.01522753 350.16836897 220.0166472 357.264641 220.00453053 364.36100691 C219.99863707 367.98112738 219.99755521 371.60107836 220.00953293 375.22118759 C220.02236956 379.14652028 220.01193839 383.07159545 219.9992218 386.99693298 C220.00659609 388.13973486 220.01397037 389.28253674 220.02156812 390.45996898 C219.97036259 397.95800757 219.46219692 403.26899578 214.03515625 408.8515625 C210.07119514 411.83028962 205.61439459 413.66344569 201.0625 415.5625 C200.07636719 415.98257324 199.09023438 416.40264648 198.07421875 416.83544922 C185.60020924 422.11016248 173.02454861 427.14478672 160.46484375 432.2109375 C150.8585293 436.08612018 141.26979177 440.00333533 131.6875 443.9375 C130.89064789 444.26455933 130.09379578 444.59161865 129.27279663 444.92858887 C114.84694145 450.85094754 100.43560776 456.80836348 86.0246582 462.76687622 C75.45473577 467.13662227 64.88168564 471.4984544 54.296875 475.83203125 C53.37311569 476.21026031 52.44935638 476.58848938 51.49760437 476.97817993 C46.91488818 478.8533941 42.33050056 480.72438253 37.7434082 482.58886719 C29.5899627 485.90612665 21.44929367 489.24482171 13.35472107 492.70375061 C9.79533389 494.22371867 6.22973845 495.72881379 2.66378784 497.23330688 C0.99827197 497.94128777 -0.6640472 498.65684674 -2.32272339 499.38070679 C-14.60058238 504.73694707 -23.38099946 507.64493409 -36.42140198 502.71669006 C-41.11510653 500.84598222 -45.74216228 498.82809488 -50.375 496.8125 C-52.41574728 495.94385276 -54.45751557 495.07760074 -56.50024414 494.21362305 C-60.71732225 492.42855603 -64.93039102 490.63447684 -69.14111328 488.83447266 C-77.74796019 485.16654633 -86.41065832 481.63725137 -95.0770874 478.11300659 C-99.64874808 476.25285267 -104.21670706 474.38364875 -108.78515625 472.515625 C-110.57437378 471.78448628 -112.36359895 471.05336628 -114.15283203 470.32226562 C-122.35411474 466.97027687 -130.55275897 463.61185943 -138.75 460.25 C-139.92979431 459.76616348 -139.92979431 459.76616348 -141.13342285 459.27255249 C-150.59017227 455.39331537 -160.04188491 451.50203841 -169.48828125 447.59765625 C-170.43514801 447.20630493 -171.38201477 446.81495361 -172.35757446 446.41174316 C-177.1838122 444.41667599 -182.00959628 442.4205177 -186.83496094 440.42333984 C-196.76235028 436.31681215 -206.69882514 432.23422587 -216.65234375 428.19140625 C-218.65991649 427.37484802 -220.66748491 426.55827915 -222.67504883 425.74169922 C-226.45270547 424.2054514 -230.23280209 422.67543085 -234.0144043 421.14892578 C-260.92937678 410.23917822 -260.92937678 410.23917822 -265.375 403.1875 C-266.38088244 400.09982961 -266.50197605 397.26537513 -266.50642776 394.02965069 C-266.51026891 392.98098471 -266.51411005 391.93231874 -266.5180676 390.85187501 C-266.51720112 389.70101672 -266.51633463 388.55015844 -266.51544189 387.36442566 C-266.51841302 386.14088121 -266.52138414 384.91733677 -266.5244453 383.65671521 C-266.53162617 380.25877925 -266.53430466 376.86089385 -266.53504276 373.46295393 C-266.53689395 369.79891034 -266.54444157 366.13487771 -266.55117798 362.47084045 C-266.56475877 354.45846766 -266.57078551 346.44609988 -266.57518864 338.43371749 C-266.57795126 333.43113012 -266.58218863 328.42854469 -266.58669281 323.42595863 C-266.59888472 309.57605072 -266.60918447 295.72614436 -266.6125679 281.87623119 C-266.61278747 280.98984924 -266.61300703 280.10346728 -266.61323325 279.19022526 C-266.61345153 278.30172148 -266.61366981 277.4132177 -266.6138947 276.49778956 C-266.61433817 274.69733822 -266.61478473 272.89688688 -266.61523438 271.09643555 C-266.6154558 270.20334929 -266.61567723 269.31026304 -266.61590537 268.39011357 C-266.61985402 253.91652084 -266.63731043 239.44297843 -266.6605939 224.96940514 C-266.68430406 210.11070964 -266.69676958 195.2520394 -266.69793582 180.39332467 C-266.69885272 172.05023063 -266.70460896 163.70720218 -266.72275543 155.36412621 C-266.73815184 148.26039985 -266.74327958 141.15675935 -266.73501733 134.05301949 C-266.73110929 130.4288579 -266.7320478 126.80486925 -266.74607468 123.18072891 C-266.76114551 119.25091961 -266.75295166 115.32135399 -266.74249268 111.39152527 C-266.75054908 110.24735915 -266.75860548 109.10319303 -266.76690602 107.92435521 C-266.72057603 100.49669242 -266.19951539 95.20696589 -260.94140625 89.5859375 C-256.2511961 86.06146897 -250.69517395 84.03891107 -245.3125 81.8125 C-244.07379176 81.29172505 -242.83535554 80.77030269 -241.59716797 80.24829102 C-230.22062885 75.47077919 -218.77533671 70.85664392 -207.33203125 66.24194336 C-194.79794368 61.18567756 -182.30020992 56.04464969 -169.8125 50.875 C-154.53364859 44.55173691 -139.24442532 38.25501643 -123.9375 32 C-123.02944611 31.62890106 -122.12139221 31.25780212 -121.18582153 30.87545776 C-117.56421405 29.39544388 -113.94258052 27.91549378 -110.32087708 26.43571472 C-102.59596247 23.27897864 -94.87358556 20.1160873 -87.15332031 16.94799805 C-83.92101062 15.62175494 -80.68721568 14.29923795 -77.45214844 12.97973633 C-70.33884124 10.07451298 -63.23941883 7.14605446 -56.18414307 4.10211182 C-53.09039618 2.76854404 -49.99037067 1.44992978 -46.88995361 0.13195801 C-45.44849754 -0.4861684 -44.01029245 -1.11194565 -42.5758667 -1.74621582 C-26.15646001 -9.0045991 -15.96942021 -6.96448104 0 0 Z M-32.82421875 30.5625 C-33.69128952 30.91823593 -34.55836029 31.27397186 -35.45170593 31.64048767 C-38.32333224 32.81954172 -41.19290164 34.00351981 -44.0625 35.1875 C-46.07294448 36.01408156 -48.08352556 36.84033093 -50.09423828 37.66625977 C-54.21148036 39.35799114 -58.32796033 41.05155737 -62.44384766 42.74658203 C-67.74534002 44.92933595 -73.04961616 47.1052134 -78.35546875 49.27734375 C-96.56765869 56.73476885 -114.76151627 64.23587966 -132.94805908 71.75561523 C-147.82868827 77.9073802 -162.72148119 84.02889838 -177.625 90.125 C-178.55670013 90.50622009 -179.48840027 90.88744019 -180.44833374 91.2802124 C-199.01333565 98.87482624 -199.01333565 98.87482624 -207.375 102.1875 C-203.8199853 105.23514909 -199.79059198 106.81505196 -195.48828125 108.515625 C-194.71300583 108.82771912 -193.93773041 109.13981323 -193.13896179 109.46136475 C-190.65734991 110.45902358 -188.17257208 111.44849591 -185.6875 112.4375 C-183.25945882 113.41007604 -180.83210131 114.38433702 -178.40499878 115.35925293 C-176.79507413 116.00467839 -175.18417103 116.64766859 -173.57229614 117.28820801 C-169.54049492 118.89416807 -165.53284949 120.53822901 -161.55224609 122.26757812 C-160.39767159 122.76327301 -160.39767159 122.76327301 -159.21977234 123.26898193 C-157.76722177 123.89519548 -156.31911276 124.53185401 -154.87654114 125.1807251 C-149.98702756 127.27591227 -147.49246041 127.41036351 -142.63401794 125.50457764 C-140.5005809 124.62457758 -138.39531648 123.6931827 -136.2890625 122.75 C-135.49296066 122.39845856 -134.69685883 122.04691711 -133.87663269 121.6847229 C-132.15348387 120.92314307 -130.431346 120.15927265 -128.71011353 119.39337158 C-125.95413778 118.16709349 -123.19560776 116.94674101 -120.4362793 115.72802734 C-117.57181925 114.46283572 -114.70750883 113.19731873 -111.84397888 111.93002319 C-102.63986296 107.85693265 -93.41624613 103.82939972 -84.1875 99.8125 C-82.58982373 99.11650103 -80.99216767 98.42045568 -79.39453125 97.72436523 C-70.64683085 93.91381268 -61.89625453 90.10989661 -53.14453125 86.30859375 C-49.26297684 84.6224971 -45.38147078 82.93628918 -41.5 81.25 C-40.54420044 80.83479095 -39.58840088 80.41958191 -38.6036377 79.99179077 C-22.46160053 72.97822335 -6.33923077 65.92054221 9.77099609 58.83422852 C10.5867662 58.47547638 11.40253632 58.11672424 12.24302673 57.74710083 C13.74721617 57.08547694 15.25126738 56.42353863 16.75514221 55.76119995 C21.03469505 53.8783899 25.32489017 52.02289992 29.625 50.1875 C27.53103229 47.88493123 25.74152758 46.60668792 22.86303711 45.44165039 C22.11473129 45.13445572 21.36642548 44.82726105 20.59544373 44.51075745 C19.78922073 44.18880905 18.98299774 43.86686066 18.15234375 43.53515625 C17.31465958 43.19375107 16.4769754 42.85234589 15.61390686 42.50059509 C12.93293932 41.40992093 10.24783698 40.32986518 7.5625 39.25 C5.78162078 38.52738304 4.0010186 37.8040829 2.22070312 37.08007812 C-1.93621895 35.39139966 -6.09748079 33.71377834 -10.26055908 32.04034424 C-12.10310334 31.29716752 -13.94223863 30.54555007 -15.78076172 29.79248047 C-16.67682129 29.42654785 -17.57288086 29.06061523 -18.49609375 28.68359375 C-19.22111084 28.38509521 -19.94612793 28.08659668 -20.69311523 27.77905273 C-24.97636987 26.27254584 -28.88075141 28.92984818 -32.82421875 30.5625 Z M65.16796875 69.87109375 C64.20475204 70.30064613 64.20475204 70.30064613 63.22207642 70.73887634 C61.82203333 71.36418063 60.42348956 71.99285006 59.02627563 72.62445068 C55.98609022 73.99850838 52.93861877 75.35605358 49.8915863 76.71484375 C48.27562187 77.43568554 46.66003853 78.15738222 45.04481506 78.87988281 C36.20153606 82.83349902 27.32082123 86.69991928 18.4375 90.5625 C16.79577241 91.27715982 15.15408975 91.99192284 13.51245117 92.70678711 C10.20197556 94.14830019 6.89133661 95.58943708 3.58056641 97.03027344 C-3.76311546 100.22660144 -11.10467579 103.42779636 -18.44638062 106.62866211 C-22.48763832 108.39058364 -26.52895917 110.15236032 -30.5703125 111.9140625 C-31.37182236 112.26345886 -32.17333221 112.61285522 -32.99913025 112.97283936 C-38.0144576 115.15898436 -43.0302001 117.34417423 -48.04621887 119.5287323 C-66.83815349 127.71297332 -85.62441322 135.90883598 -104.375 144.1875 C-103.05632922 146.82484157 -101.93432412 146.96763566 -99.22363281 148.06005859 C-98.33534286 148.42196793 -97.44705292 148.78387726 -96.53184509 149.15675354 C-95.55711746 149.54588425 -94.58238983 149.93501495 -93.578125 150.3359375 C-92.5692775 150.74516953 -91.56042999 151.15440155 -90.52101135 151.57603455 C-87.22497748 152.91148635 -83.92518711 154.23734845 -80.625 155.5625 C-76.13323935 157.37413764 -71.6427868 159.18900566 -67.15234375 161.00390625 C-66.04513474 161.45056137 -64.93792572 161.89721649 -63.79716492 162.35740662 C-57.46471055 164.91713829 -51.15688406 167.52437094 -44.87890625 170.21484375 C-43.85870895 170.64944916 -43.85870895 170.64944916 -42.81790161 171.09283447 C-39.78097947 172.38671298 -36.75057742 173.69242609 -33.72949219 175.02294922 C-32.17149902 175.68641357 -32.17149902 175.68641357 -30.58203125 176.36328125 C-29.7103833 176.74395752 -28.83873535 177.12463379 -27.94067383 177.5168457 C-22.38469081 178.96915185 -17.41342066 176.59514393 -12.3125 174.4765625 C-11.62582748 174.19712296 -10.93915497 173.91768341 -10.23167419 173.629776 C-7.94359928 172.69671399 -5.65933516 171.75467681 -3.375 170.8125 C-1.73464633 170.14121858 -0.09409777 169.47041325 1.54663086 168.80004883 C6.91010504 166.60559016 12.26792379 164.39752273 17.625 162.1875 C18.53614563 161.81183899 19.44729126 161.43617798 20.38604736 161.0491333 C28.94246241 157.52120246 37.49702623 153.98880621 46.04882812 150.44970703 C59.22770842 144.99646202 72.42098591 139.57957983 85.625 134.1875 C101.40923385 127.74066571 117.17885502 121.25914136 132.9375 114.75 C134.43228882 114.13282104 134.43228882 114.13282104 135.95727539 113.50317383 C138.78036124 112.33735654 141.60313989 111.17079926 144.42578125 110.00390625 C145.25604324 109.66098038 146.08630524 109.3180545 146.94172668 108.96473694 C151.51733323 107.07160959 156.0780332 105.14845296 160.625 103.1875 C157.48529808 101.09436539 154.29546784 99.70170403 150.828125 98.2734375 C150.13863266 97.98653046 149.44914032 97.69962341 148.73875427 97.40402222 C146.4521521 96.45364264 144.16361793 95.50801397 141.875 94.5625 C140.27701709 93.89961295 138.67911805 93.23652369 137.08129883 92.57324219 C123.16541326 86.80237846 109.22791637 81.08356833 95.28417969 75.38037109 C94.48883316 75.05489288 93.69348663 74.72941467 92.8740387 74.39407349 C91.39780547 73.79008733 89.92137211 73.18658996 88.44468689 72.58370972 C87.77933426 72.3114859 87.11398163 72.03926208 86.4284668 71.75878906 C85.79266693 71.49972778 85.15686707 71.2406665 84.50180054 70.97375488 C83.23179182 70.44170551 81.97021052 69.88915523 80.7171936 69.3182373 C74.53291825 66.51083224 71.22828041 67.14207273 65.16796875 69.87109375 Z M-233.375 128.1875 C-233.375 212.9975 -233.375 297.8075 -233.375 385.1875 C-212.34016207 394.04427387 -191.34694369 402.87292625 -170.18589783 411.40197754 C-158.69989728 416.03309586 -147.25534995 420.76348752 -135.8125 425.5 C-114.97302556 434.12405174 -94.10729519 442.68242464 -73.2265625 451.20605469 C-69.38943458 452.77266009 -65.55348969 454.34213048 -61.71821594 455.91326904 C-59.73711647 456.72469108 -57.75571429 457.53536824 -55.77416992 458.34570312 C-53.45611941 459.29368811 -51.13854025 460.24282686 -48.8215332 461.19335938 C-47.34172974 461.79760742 -47.34172974 461.79760742 -45.83203125 462.4140625 C-44.98616455 462.76033691 -44.14029785 463.10661133 -43.26879883 463.46337891 C-41.55724479 464.24702446 -41.55724479 464.24702446 -40.375 464.1875 C-40.375 379.3775 -40.375 294.5675 -40.375 207.1875 C-71.17358835 194.19466993 -71.17358835 194.19466993 -102.06689453 181.43554688 C-105.25852755 180.13300592 -108.44760564 178.82432201 -111.63671875 177.515625 C-113.68995702 176.67672311 -115.74333604 175.83816559 -117.796875 175 C-118.73915955 174.61271729 -119.68144409 174.22543457 -120.65228271 173.82641602 C-121.93960297 173.30325806 -121.93960297 173.30325806 -123.25292969 172.76953125 C-124.00435242 172.46249268 -124.75577515 172.1554541 -125.52996826 171.83911133 C-127.36318804 171.07649579 -127.36318804 171.07649579 -129.375 171.1875 C-129.37864563 172.09903336 -129.38229126 173.01056671 -129.38604736 173.94972229 C-129.42397612 182.55670282 -129.48088437 191.16330631 -129.55890274 199.77002048 C-129.59834546 204.19443264 -129.63054955 208.61864673 -129.64599609 213.04321289 C-129.66118397 217.31636805 -129.69566682 221.58897857 -129.74330902 225.86189079 C-129.75810095 227.4888427 -129.76603976 229.11587238 -129.76688385 230.74289131 C-129.76926199 233.02913013 -129.79640626 235.31387403 -129.82910156 237.59985352 C-129.84242523 239.54844017 -129.84242523 239.54844017 -129.85601807 241.53639221 C-130.59600046 246.742268 -132.50101878 250.62584899 -136.625 254.0625 C-141.59792952 256.09688026 -145.76573007 256.40946827 -151 255.6875 C-155.33892193 253.75909025 -157.77009153 251.11234531 -160.375 247.1875 C-161.63976503 243.3932049 -161.55196456 239.81571451 -161.58032227 235.8605957 C-161.59022186 235.01159698 -161.60012146 234.16259827 -161.61032104 233.28787231 C-161.64192583 230.47970373 -161.66668948 227.67151822 -161.69140625 224.86328125 C-161.71197666 222.91700296 -161.73297315 220.97072912 -161.75437927 219.02445984 C-161.80959099 213.90021372 -161.85900427 208.77592735 -161.90722656 203.65161133 C-161.95744813 198.42330337 -162.01313078 193.19505392 -162.06835938 187.96679688 C-162.17592995 177.70708123 -162.27737741 167.44731479 -162.375 157.1875 C-175.62111479 151.37075121 -188.8950903 145.6515344 -202.31396484 140.24414062 C-204.67049832 139.2941584 -207.02478906 138.33876483 -209.37890625 137.3828125 C-210.92435313 136.75750092 -212.46992142 136.13248929 -214.015625 135.5078125 C-214.69602844 135.2317215 -215.37643188 134.95563049 -216.07745361 134.6711731 C-221.80299992 132.36846443 -227.56400813 130.30058795 -233.375 128.1875 Z M181.7434082 129.72192383 C180.90911285 130.06176804 180.0748175 130.40161224 179.21524048 130.75175476 C178.29471893 131.128871 177.37419739 131.50598724 176.42578125 131.89453125 C174.98481583 132.48262321 174.98481583 132.48262321 173.51473999 133.08259583 C170.32156499 134.38654168 167.12950467 135.69319209 163.9375 137 C161.70485476 137.91264849 159.47218848 138.8252455 157.23950195 139.73779297 C141.63286029 146.12045258 126.04386104 152.54535687 110.46325684 158.99127197 C96.38365821 164.81618139 82.29198562 170.61061087 68.1875 176.375 C67.28500519 176.74389343 66.38251038 177.11278687 65.45266724 177.49285889 C61.85574418 178.96305435 58.25876018 180.43310056 54.66169739 181.9029541 C45.69745218 185.5660599 36.73433255 189.23190128 27.77365112 192.90371704 C26.12532898 193.57893214 24.47683778 194.25373474 22.82815552 194.92807007 C20.54384756 195.86242594 18.26014222 196.79824098 15.9765625 197.734375 C15.33558121 197.99618057 14.69459991 198.25798615 14.03419495 198.52772522 C7.19510447 201.33505369 0.42315562 204.27400473 -6.375 207.1875 C-6.375 291.9975 -6.375 376.8075 -6.375 464.1875 C6.7339368 459.29081699 6.7339368 459.29081699 19.703125 454.078125 C21.02071053 453.53189232 21.02071053 453.53189232 22.36491394 452.97462463 C24.23494891 452.19911534 26.10450575 451.42245217 27.97360229 450.64468384 C33.03859902 448.53729188 38.10745085 446.43920237 43.17578125 444.33984375 C44.21319962 443.90987595 45.25061798 443.47990814 46.31947327 443.03691101 C56.88738318 438.65918311 67.4732018 434.32567983 78.0625 430 C79.90024068 429.24897342 81.73796856 428.4979155 83.57568359 427.74682617 C86.29503374 426.63544868 89.01439843 425.52410688 91.73382568 424.41291809 C114.77237144 414.99853556 137.79309047 405.54092902 160.79840088 396.04562378 C162.88160392 395.18580786 164.96489576 394.32620706 167.04827881 393.46682739 C169.945275 392.27164793 172.84184707 391.07544695 175.73828125 389.87890625 C176.61024643 389.5192981 177.48221161 389.15968994 178.38059998 388.78918457 C179.57532677 388.29521179 179.57532677 388.29521179 180.79418945 387.79125977 C181.4893013 387.5042067 182.18441315 387.21715363 182.90058899 386.92140198 C184.16063269 386.38513275 185.40015884 385.79992058 186.625 385.1875 C186.625 300.3775 186.625 215.5675 186.625 128.1875 C184.87643406 128.1875 183.34603796 129.06728557 181.7434082 129.72192383 Z " fill="#000000" transform="translate(279.375,6.8125)"/>
</svg>
