<?xml version="1.0" encoding="UTF-8"?>
<svg version="1.1" xmlns="http://www.w3.org/2000/svg" width="512" height="512">
<path d="M0 0 C1.37644727 -0.00258632 2.75289379 -0.00560022 4.12933928 -0.0090034 C7.90216503 -0.0170456 11.67497174 -0.01886142 15.44780505 -0.01960087 C19.52096922 -0.02145633 23.59412361 -0.02900624 27.6672821 -0.03573608 C36.57054915 -0.04930116 45.47381169 -0.05534156 54.37708735 -0.05974674 C59.94142104 -0.06251281 65.50575301 -0.06675088 71.07008553 -0.07125092 C86.48993667 -0.08344225 101.90978644 -0.09374115 117.3296423 -0.09712601 C118.31602122 -0.09734557 119.30240015 -0.09756514 120.31866935 -0.09779136 C121.30735288 -0.09800964 122.29603641 -0.09822791 123.31468004 -0.09845281 C125.31798677 -0.09889627 127.32129349 -0.09934283 129.32460022 -0.09979248 C130.81515093 -0.10012463 130.81515093 -0.10012463 132.33581377 -0.10046348 C148.42299828 -0.10440814 164.5101374 -0.12185264 180.5973044 -0.145152 C197.13194651 -0.16890516 213.6665659 -0.1813297 230.20122534 -0.18249393 C239.4773856 -0.18340857 248.75348675 -0.1891075 258.02963066 -0.20731354 C265.93158858 -0.22276826 273.83346912 -0.22780353 281.73543929 -0.21957543 C285.76173322 -0.21568758 289.78787158 -0.21650639 293.81414604 -0.23063278 C322.89150481 -0.32665304 348.7326719 1.65039075 370.72767639 23.19903564 C384.39081586 37.16322734 393.65491248 56.28531354 393.67941666 76.06255341 C393.6832578 77.23077023 393.68709895 78.39898705 393.69105649 79.60260439 C393.69019001 80.8767204 393.68932353 82.15083642 393.68843079 83.46356201 C393.69101626 84.83802355 393.69402993 86.21248435 393.69743419 87.5869441 C393.70548544 91.3585322 393.7072927 95.13010125 393.70803165 98.90169692 C393.70988538 102.97127907 393.71743413 107.0408514 393.72416687 111.11042786 C393.73773547 120.0048185 393.74377207 128.89920463 393.74817753 137.7936039 C393.75094137 143.34663107 393.75517888 148.8996565 393.7596817 154.4526825 C393.77187041 169.82704814 393.78217183 185.2014124 393.78555679 200.57578278 C393.78577636 201.55927723 393.78599593 202.54277167 393.78622214 203.55606899 C393.78644042 204.54190531 393.7866587 205.52774163 393.78688359 206.54345179 C393.78732706 208.54111385 393.78777362 210.53877592 393.78822327 212.53643799 C393.7884447 213.52734584 393.78866613 214.51825368 393.78889427 215.53918904 C393.79284512 231.60732663 393.81030967 247.67541895 393.83358279 263.74353904 C393.8572832 280.23968079 393.86975798 296.73579981 393.87092471 313.23195887 C393.87184199 322.49440128 393.87760803 331.75678465 393.89574432 341.01921082 C393.91112733 348.90318003 393.91627628 356.78707192 393.90800622 364.67105329 C393.90409387 368.69407594 393.90505785 372.71694279 393.91906357 376.73994637 C393.9317669 380.42245385 393.93063664 384.10468787 393.91847286 387.78719479 C393.91557944 389.75090051 393.92747838 391.7146108 393.93989491 393.6782794 C393.90195718 400.40370333 393.79546608 405.58005675 389.04798889 410.78497314 C384.45391019 414.36213339 380.97476978 415.65009224 375.22889709 415.52911377 C372.14387232 415.08185401 370.22478505 414.10346357 367.52845764 412.55059814 C366.56472229 412.00411621 365.60098694 411.45763428 364.60804749 410.89459229 C363.09331848 410.02628784 363.09331848 410.02628784 361.54798889 409.14044189 C359.50417584 408.01224787 357.45856059 406.88731326 355.41127014 405.76544189 C343.34487978 399.09707692 331.35506683 392.32837071 319.46913147 385.34161377 C311.48421011 380.65800464 303.42798706 376.11212638 295.32484436 371.6362915 C294.39816956 371.12203613 293.47149475 370.60778076 292.51673889 370.07794189 C291.03552299 369.2762473 291.03552299 369.2762473 289.52438354 368.45835686 C286.42596276 366.71794654 283.52725589 364.77083399 280.60470581 362.75029182 C264.74906992 352.14593857 252.251371 350.15794522 233.46595764 350.52276611 C230.7395723 350.53126829 228.01338016 350.51843131 225.28701782 350.50648499 C219.46711021 350.49171319 213.64932418 350.52675588 207.82984924 350.59728622 C199.39929636 350.69901715 190.97005243 350.71752504 182.53895879 350.71659233 C168.83041832 350.71689526 155.12283727 350.77626902 141.41468811 350.87677002 C128.15593427 350.97379235 114.89735136 351.05274802 101.63832092 351.10040283 C100.82030097 351.10335558 100.00228102 351.10630832 99.15947258 351.10935055 C90.21238711 351.14104031 81.26529599 351.16661633 72.31817627 351.18631172 C71.13608992 351.18894066 71.13608992 351.18894066 69.93012303 351.19162271 C66.77841494 351.19858428 63.62670704 351.20553305 60.4749974 351.21176447 C51.29192289 351.23014905 42.10936593 351.26694733 32.92654055 351.33806343 C27.16916748 351.38234146 21.41182562 351.41363751 15.65432245 351.43509285 C12.34260892 351.4481382 9.0316054 351.47028506 5.72001839 351.50622368 C-10.95268282 351.68373504 -26.68224373 351.51576314 -41.76451111 343.45294189 C-42.42056335 343.11335449 -43.0766156 342.77376709 -43.75254822 342.42388916 C-49.96303384 339.08737658 -55.27022949 334.91152581 -60.45201111 330.14044189 C-61.39753845 329.33219971 -61.39753845 329.33219971 -62.36216736 328.50762939 C-77.00417031 315.2331028 -84.21351954 294.37341065 -85.45201111 275.14044189 C-85.64519806 268.75485463 -85.59924917 262.36343619 -85.59727478 255.97564697 C-85.60027067 254.03794287 -85.60367418 252.10023936 -85.60745239 250.16253662 C-85.61625342 244.92055006 -85.61862888 239.67857985 -85.61926818 234.43658662 C-85.61998096 231.15489868 -85.62211961 227.87321485 -85.6247654 224.59152794 C-85.63400633 213.12369907 -85.6381019 201.65588179 -85.63731384 190.18804932 C-85.63671357 179.52946733 -85.64725865 168.87093604 -85.66305751 158.21236688 C-85.67617079 149.03578353 -85.68149614 139.85921668 -85.68085843 130.68262404 C-85.68060454 125.21330746 -85.68339563 119.74403595 -85.69403648 114.27472878 C-85.70378128 109.12579459 -85.70375327 103.97694799 -85.69651985 98.82801056 C-85.69548186 96.94922189 -85.69778962 95.07042757 -85.70388031 93.19164848 C-85.77717001 68.9974827 -82.5897003 47.31355358 -66.45201111 28.14044189 C-65.68888611 27.12981689 -64.92576111 26.11919189 -64.13951111 25.07794189 C-47.04376317 6.39189182 -24.46678991 -0.01666455 0 0 Z M-34.45201111 43.14044189 C-35.50388611 43.90356689 -36.55576111 44.66669189 -37.63951111 45.45294189 C-46.69910488 54.10988705 -52.15671282 66.50387322 -52.58343887 78.98430061 C-52.59148336 80.46016714 -52.59414364 81.93606931 -52.592453 83.41195679 C-52.59542413 84.22941057 -52.59839525 85.04686435 -52.6014564 85.88908947 C-52.61010743 88.62018226 -52.61164861 91.35123103 -52.61314392 94.08233643 C-52.61777469 96.04402255 -52.6227997 98.00570778 -52.62818909 99.96739197 C-52.64129126 105.29205241 -52.64775394 110.61670026 -52.65219975 115.9413743 C-52.65513435 119.27126007 -52.65923992 122.60114242 -52.66370392 125.93102646 C-52.67737389 136.35880013 -52.68704266 146.78656595 -52.69090581 157.21434796 C-52.69538368 169.23406508 -52.71292117 181.25366833 -52.7419064 193.27335083 C-52.76355622 202.57549557 -52.77361187 211.87760833 -52.77494693 221.17977798 C-52.7759927 226.73012733 -52.78185196 232.28036956 -52.79976654 237.83069229 C-52.81630402 243.05592484 -52.81837522 248.28097039 -52.80962753 253.50621986 C-52.80886016 255.41690765 -52.81316004 257.32760574 -52.82308578 259.2382679 C-52.91059822 277.14372733 -50.78876574 292.29365342 -37.97154236 305.81231689 C-25.13300222 317.67552607 -10.78517455 319.33460668 5.99822998 319.21791077 C7.12154136 319.21438195 8.24485274 319.21085314 9.40220386 319.2072174 C11.85405985 319.19891178 14.30590873 319.1882536 16.75774574 319.17552376 C20.7492589 319.15481073 24.74077129 319.13988314 28.73231506 319.12692261 C33.03582916 319.11271583 37.33934009 319.09821551 41.64284551 319.08156264 C52.32247763 319.0407144 63.00202763 319.02019292 73.68173218 319.01170349 C74.84350572 319.01073456 74.84350572 319.01073456 76.02874943 319.00974605 C83.21784699 319.00385384 90.40694521 318.99920566 97.59604394 318.99502718 C102.51923528 318.99206987 107.4424256 318.98835579 112.36561584 318.98394775 C113.18315579 318.98322514 114.00069574 318.98250253 114.84300963 318.98175802 C128.06151962 318.96887739 141.27960664 318.91660181 154.49794497 318.85054926 C168.10604931 318.78354568 181.71369067 318.76274404 195.32194644 318.78301734 C203.69377686 318.79399848 212.06390749 318.76956335 220.43544517 318.69789322 C226.18915066 318.65203362 231.94182094 318.6512456 237.69560953 318.68410835 C241.00340734 318.70170311 244.30575899 318.69432639 247.61360359 318.64605904 C264.94263287 318.40832122 276.84239711 321.13943731 291.40562594 330.73598135 C294.22548693 332.58458665 297.12847266 334.23145858 300.06752014 335.88262939 C301.83347619 336.92413607 303.59783917 337.96834931 305.36048889 339.01544189 C314.71296975 344.52207886 324.14707025 349.86434296 333.63124084 355.14044189 C340.71380206 359.08878244 347.73225469 363.13050565 354.68836975 367.29766846 C357.44257282 369.26501975 357.44257282 369.26501975 360.54798889 370.14044189 C360.61667934 332.34723428 360.66953004 294.55403607 360.70118488 256.76077864 C360.70493693 252.29732645 360.7088199 247.83387438 360.71278381 243.37042236 C360.71357074 242.48184227 360.71435768 241.59326217 360.71516845 240.6777554 C360.7282167 226.29647056 360.75186735 211.91522175 360.77944728 197.53395827 C360.80751763 182.77369026 360.8241686 168.01344109 360.83025438 153.25314748 C360.83436743 144.14777564 360.84735081 135.04250567 360.87173829 125.93716519 C360.8876156 119.69038481 360.89238473 113.44365697 360.88849302 107.19685788 C360.88657458 103.59462521 360.88948248 99.99257035 360.90560532 96.39036942 C360.9229838 92.47892097 360.91693414 88.56770225 360.90875244 84.65621948 C360.91749097 83.5258453 360.92622949 82.39547113 360.93523282 81.23084319 C360.85409345 66.85945387 355.7935948 55.85138228 345.98939514 45.43341064 C334.99341091 35.10598225 321.05319301 32.52803616 306.43019104 32.63250732 C305.05467112 32.6278865 303.67915617 32.62152573 302.30365133 32.61359835 C298.56125943 32.59704362 294.81928039 32.60508734 291.07688785 32.61754322 C287.02635962 32.62664882 282.97589901 32.61259686 278.92538452 32.60162354 C271.00520585 32.58389214 263.08517932 32.5876542 255.16499484 32.5992741 C248.72470967 32.60832941 242.28446696 32.60952337 235.84417725 32.60517883 C234.92549672 32.6045659 234.00681619 32.60395297 233.06029686 32.60332146 C231.1936703 32.60204249 229.32704375 32.60074563 227.46041721 32.5994311 C209.98132775 32.58804106 192.50232237 32.60111422 175.02324671 32.62263256 C160.04463561 32.64050211 145.06614853 32.63739756 130.08753967 32.61895752 C112.66847205 32.59752291 95.24947801 32.58913955 77.83039904 32.60140657 C75.97086621 32.60268069 74.11133338 32.60393818 72.25180054 32.60517883 C71.33701592 32.60579594 70.42223129 32.60641304 69.47972593 32.60704884 C63.0515904 32.61049397 56.62350179 32.60469148 50.19537354 32.59526062 C42.35528785 32.58401043 34.51536224 32.58714392 26.67529476 32.6083836 C22.67967862 32.61885355 18.6843288 32.62308567 14.68871498 32.60978699 C11.02329708 32.59777234 7.35838961 32.60457273 3.6930173 32.6256972 C1.75570602 32.63220526 -0.18164136 32.61930874 -2.11891413 32.60546827 C-14.35474735 32.71382946 -24.74084843 35.60047413 -34.45201111 43.14044189 Z " fill="#000000" transform="translate(100.45201110839844,78.85955810546875)"/>
</svg>
