<?xml version="1.0" encoding="UTF-8"?>
<svg version="1.1" xmlns="http://www.w3.org/2000/svg" width="512" height="512">
<path d="M0 0 C2.0000649 -0.00570886 4.00012655 -0.01267512 6.00018311 -0.02079773 C11.41149553 -0.03868889 16.82264543 -0.03756813 22.23397851 -0.03185534 C26.76153477 -0.02875709 31.2890601 -0.03486315 35.81661195 -0.04089409 C46.50390697 -0.05492497 57.19112204 -0.05339048 67.87841797 -0.04199219 C78.8802051 -0.03051729 89.88174827 -0.04457948 100.88350326 -0.07138866 C110.35051378 -0.09358875 119.81744797 -0.10017319 129.28448266 -0.09431225 C134.92927563 -0.0909512 140.57391232 -0.09330082 146.21868324 -0.11056328 C151.53022115 -0.12609864 156.84139953 -0.12200393 162.15292358 -0.10325813 C164.09382753 -0.0995902 166.03475851 -0.10262784 167.97563744 -0.11314392 C189.15793715 -0.21908373 203.011362 4.89165943 218.51342773 19.74584961 C220.42569743 21.56900174 222.35684361 23.37057205 224.29174805 25.16967773 C230.4778844 30.92668053 236.62119974 36.70055846 242.5456543 42.72827148 C244.32417438 44.47423285 246.17174822 46.09631679 248.06518555 47.71655273 C251.45464138 50.62655705 254.61720354 53.72564832 257.75268555 56.90405273 C261.44262408 60.64436585 265.22772249 64.1864462 269.2253418 67.59545898 C272.57148491 70.5805539 275.66862507 73.81288041 278.8190918 77.00170898 C280.8851092 79.04119647 282.98274104 80.95913073 285.19018555 82.84155273 C289.05838455 86.14710461 292.61428882 89.73313981 296.18164062 93.35473633 C298.82106006 96.01934544 301.51014575 98.55027916 304.37768555 100.96655273 C315.28833185 110.42690863 323.826429 121.8208173 326.25268555 136.40405273 C326.54132519 140.89977122 326.53117915 145.38555376 326.52011108 149.88934326 C326.52385165 151.25713166 326.52845479 152.62491791 326.53384173 153.99270082 C326.54603693 157.73680588 326.54581539 161.48082135 326.54345298 165.22494173 C326.54304393 169.26870878 326.55409236 173.31244744 326.56356812 177.35620117 C326.58015998 185.27334332 326.58567684 193.19045569 326.58679287 201.10761377 C326.58774421 207.54515838 326.59185877 213.98269318 326.59819412 220.42023468 C326.61580158 238.68424594 326.62503377 256.94823373 326.62353317 275.21225354 C326.62345326 276.19626017 326.62337335 277.18026679 326.62329102 278.1940918 C326.62320925 279.17930416 326.62312749 280.16451653 326.62304325 281.17958382 C326.62223049 297.14332934 326.64136692 313.10698048 326.66956775 329.07069871 C326.69831625 345.47427665 326.71210696 361.87780859 326.7103802 378.28141236 C326.70971698 387.48590472 326.71517952 396.69029813 326.7367363 405.89476776 C326.75497397 413.73205991 326.75927422 421.56920825 326.74571745 429.40651247 C326.73920082 433.40198112 326.73902306 437.39717408 326.75642395 441.39261627 C326.772218 445.05693052 326.76922731 448.72075193 326.75185569 452.38505462 C326.74736224 454.32435119 326.76239329 456.26366344 326.77833498 458.20289969 C326.66289498 472.95605751 321.23463911 486.26944971 311.19018555 497.15405273 C299.37355737 508.24474471 285.65832965 512.87621145 269.665802 512.79173279 C268.43249173 512.79711833 267.19918146 512.80250386 265.92849815 512.8080526 C262.53081212 512.81982597 259.13362068 512.81828852 255.735955 512.81088579 C252.06167919 512.80613598 248.38745486 512.81867994 244.7131958 512.8289032 C237.52489662 512.84606131 230.33668497 512.84693741 223.14837064 512.84169029 C217.30297453 512.83764169 211.4576042 512.83910034 205.61220932 512.84443855 C204.7788698 512.84518697 203.94553028 512.8459354 203.08693805 512.8467065 C201.39376816 512.84823805 199.70059827 512.84977639 198.00742839 512.85132147 C182.14458866 512.86503576 166.28179831 512.85961641 150.41895972 512.84813625 C135.92323429 512.83820558 121.42763654 512.85114356 106.9319308 512.87507045 C92.02893945 512.89948328 77.12600752 512.90906392 62.22299659 512.90241772 C53.86361406 512.89893027 45.50432967 512.90112612 37.14496231 512.91866875 C30.02868244 512.9334181 22.91256984 512.93399062 15.79629315 512.91659784 C12.16940504 512.90810773 8.54281539 512.90588902 4.91594315 512.92124939 C0.97498955 512.93773257 -2.96550765 512.92289833 -6.90646362 512.90525818 C-8.03975471 512.91486319 -9.1730458 512.92446819 -10.34067905 512.93436426 C-24.71134458 512.80251755 -37.9359999 507.08767148 -48.49731445 497.34155273 C-61.12571036 483.88657092 -64.20448987 469.04586383 -64.13499451 451.18557739 C-64.13917137 449.43658032 -64.14465082 447.68758597 -64.15131432 445.93859661 C-64.16574139 441.15003582 -64.16153275 436.36164756 -64.15414751 431.57307744 C-64.14941136 426.40186154 -64.16192965 421.23068272 -64.17216492 416.05947876 C-64.1893495 405.93544352 -64.19019362 395.81147035 -64.18495201 385.68742432 C-64.18090843 377.45740037 -64.18235611 369.22739475 -64.18770027 360.99737167 C-64.18844869 359.82543808 -64.18919712 358.65350449 -64.18996822 357.44605776 C-64.19149972 355.06517387 -64.19303806 352.68428998 -64.19458319 350.3034061 C-64.20830701 327.9824862 -64.20287137 305.66160136 -64.19139797 283.34068225 C-64.18146583 262.92809936 -64.19440617 242.51560712 -64.21833216 222.10303821 C-64.24272472 201.13414414 -64.25233064 180.16529228 -64.24567944 159.19638431 C-64.24218756 147.42764009 -64.24441727 135.65896557 -64.26193047 123.89023209 C-64.27665436 113.87176295 -64.27728535 103.85341262 -64.25985955 93.83494581 C-64.2513488 88.72559298 -64.24920201 83.61645235 -64.26451111 78.5071106 C-64.27836567 73.82517283 -64.27358504 69.14362893 -64.25427187 64.4617139 C-64.25051394 62.77271337 -64.25342785 61.08368123 -64.26388352 59.39470889 C-64.36010402 42.65434676 -60.3152122 28.25725327 -48.68481445 15.65405273 C-34.33815664 2.18875956 -18.86179867 -0.04864104 0 0 Z M-28.05981445 39.84155273 C-32.94633453 47.26182396 -33.87084229 53.72030849 -33.87594891 62.51843071 C-33.87770194 63.20253747 -33.87945498 63.88664424 -33.88126114 64.59148151 C-33.88590136 66.87659048 -33.88346077 69.16163526 -33.88102722 71.44674683 C-33.88289619 73.10454425 -33.88519723 74.76234124 -33.88789254 76.42013752 C-33.89400629 80.97038427 -33.89387745 85.52061262 -33.89269817 90.07086253 C-33.89249406 94.98029917 -33.89801388 99.88972992 -33.90275574 104.79916382 C-33.91106027 114.4152493 -33.91381048 124.03132865 -33.91436812 133.64741741 C-33.91484332 141.46325032 -33.9168983 149.27908121 -33.92006874 157.09491348 C-33.92887439 179.25365292 -33.9334882 201.41238751 -33.93273827 223.57112871 C-33.93269831 224.7655786 -33.93265835 225.96002849 -33.93261719 227.19067383 C-33.93257631 228.38658166 -33.93253543 229.5824895 -33.93249331 230.81463696 C-33.93208675 250.20123303 -33.94165894 269.58780969 -33.95575555 288.97440015 C-33.97011527 308.87983504 -33.97702598 328.78526045 -33.97616178 348.69070065 C-33.97582969 359.86636813 -33.97858191 371.04201525 -33.98933983 382.21767807 C-33.99843945 391.73159069 -34.00062446 401.24547371 -33.99383041 410.75938879 C-33.99056263 415.61311179 -33.99051786 420.46677799 -33.99918365 425.32049561 C-34.00703802 429.76543789 -34.00562809 434.21027825 -33.99689952 438.65521802 C-33.99536221 440.26148444 -33.99718941 441.86775843 -34.0027596 443.47401594 C-34.03959605 454.85179004 -34.06288695 465.10101256 -26.74731445 474.40405273 C-18.06468373 482.64142034 -8.58757579 482.55415772 2.66378784 482.5377655 C3.80681338 482.54003106 4.94983893 482.54229662 6.12750161 482.54463083 C9.95423338 482.55095652 13.7809296 482.55014238 17.60766602 482.54931641 C20.35268284 482.55176577 23.09769718 482.55568322 25.8427124 482.55949402 C32.52305521 482.56778842 39.20338919 482.5705483 45.88373671 482.5711064 C51.31493957 482.57158208 56.74613952 482.57363942 62.17734146 482.57680702 C77.58490288 482.58560985 92.99245735 482.59022691 108.4000213 482.58947655 C109.23005773 482.58943659 110.06009416 482.58939664 110.9152832 482.58935547 C111.74633603 482.58931459 112.57738887 482.58927371 113.43362512 482.58923159 C126.90335315 482.58882509 140.37305323 482.59839642 153.84277318 482.61249384 C167.68230211 482.62686372 181.52181742 482.6337637 195.36135399 482.63290006 C203.1276525 482.63256833 210.89392169 482.63530498 218.66021347 482.64607811 C225.27192435 482.65519111 231.88359263 482.65735175 238.49530707 482.65056869 C241.8665627 482.64730766 245.23767003 482.64832238 248.60892868 482.65592194 C252.26856403 482.6636369 255.92798524 482.6590001 259.58761597 482.65129089 C260.64609108 482.65643446 261.70456619 482.66157802 262.79511631 482.66687745 C272.89184786 482.61992598 281.56933196 481.42430264 289.25268555 474.40405273 C296.57290394 465.08880627 296.40118888 456.29411987 296.37294006 444.90736389 C296.37379449 443.64773234 296.37464891 442.38810079 296.37552923 441.09029859 C296.37775924 437.6058193 296.37377339 434.1213709 296.36875117 430.63689554 C296.36442537 426.87488392 296.3658946 423.112874 296.36665344 419.3508606 C296.36717733 412.83683422 296.36404466 406.32281787 296.3584156 399.80879402 C296.35028227 390.39065485 296.3476835 380.97252051 296.34642761 371.5543782 C296.34423998 356.27339131 296.3375877 340.99240977 296.328125 325.71142578 C296.31894343 310.86897814 296.31186624 296.02653194 296.30761719 281.18408203 C296.30735446 280.26891345 296.30709174 279.35374488 296.30682106 278.41084392 C296.305516 273.81962849 296.3042523 269.22841306 296.30300915 264.63719761 C296.29264552 226.55947891 296.27503504 188.48176618 296.25268555 150.40405273 C295.03239151 150.39818649 293.81209747 150.39232025 292.55482483 150.38627625 C281.03475825 150.32897515 269.51487909 150.25617476 257.9950037 150.16833782 C252.07301771 150.12367816 246.15109981 150.08441215 240.22900391 150.05761719 C234.51006051 150.03154055 228.79137978 149.99110686 223.07259941 149.94086647 C220.89465041 149.92422731 218.716656 149.91269471 216.53865242 149.90643883 C213.47959207 149.89676578 210.42119929 149.8686676 207.36230469 149.83642578 C206.46893906 149.83786087 205.57557343 149.83929596 204.65513611 149.84077454 C194.44263168 149.68930785 186.59110767 146.56315251 179.25268555 139.40405273 C173.01793819 131.74383964 170.95838298 124.83616364 170.93383789 115.09399414 C170.91876945 113.71742645 170.91876945 113.71742645 170.90339661 112.31304932 C170.8726219 109.29391072 170.85554528 106.27486057 170.83862305 103.25561523 C170.81990682 101.15667971 170.80033306 99.05775167 170.77993774 96.95883179 C170.72865873 91.44501158 170.68901027 85.931167 170.65179443 80.41723633 C170.61172833 74.78647857 170.56064786 69.15582187 170.51049805 63.52514648 C170.4137888 52.48485294 170.32936794 41.44450227 170.25268555 30.40405273 C147.06943012 30.35730224 123.88618247 30.32204893 100.70288944 30.30042839 C89.93814072 30.29012214 79.17342131 30.27607422 68.40869141 30.25317383 C59.02458773 30.23322006 49.64050528 30.22033157 40.25638098 30.21587574 C35.28900265 30.21327174 30.32168508 30.20716468 25.35432625 30.19259262 C20.67503265 30.17897735 15.99582459 30.17483807 11.31651306 30.17783737 C9.60291516 30.17728897 7.88931428 30.1733351 6.17573357 30.16564178 C-12.63659591 30.01337912 -12.63659591 30.01337912 -28.05981445 39.84155273 Z M200.25268555 46.40405273 C200.20634311 55.33143514 200.17080665 64.25877614 200.1490612 73.18625259 C200.13862444 77.33164977 200.12446719 81.47696464 200.10180664 85.62231445 C200.08007444 89.62287963 200.06811611 93.62336564 200.06293106 97.62398529 C200.05923598 99.15020748 200.05202044 100.67642534 200.04122543 102.20261383 C200.02670537 104.34049337 200.0247078 106.47804587 200.02563477 108.6159668 C200.02119354 109.83286194 200.01675232 111.04975708 200.01217651 112.30352783 C200.24400058 115.29209045 200.5177302 116.98160436 202.25268555 119.40405273 C205.78450912 120.58132726 208.56604817 120.52399531 212.29443359 120.51757812 C213.00688232 120.51772415 213.71933105 120.51787018 214.45336914 120.51802063 C216.80707855 120.51732424 219.16070872 120.50954466 221.5144043 120.50170898 C223.1467942 120.49984383 224.77918466 120.49842039 226.41157532 120.49742126 C230.70730129 120.49360375 235.00299344 120.48377998 239.29870605 120.47271729 C243.68244977 120.46248673 248.06619896 120.45792012 252.44995117 120.45288086 C261.05087815 120.44215704 269.65177764 120.42508978 278.25268555 120.40405273 C275.12381205 116.68322472 272.03177742 113.01696638 268.44799805 109.72045898 C267.78606445 109.10686523 267.12413086 108.49327148 266.44213867 107.86108398 C265.76086914 107.23588867 265.07959961 106.61069336 264.37768555 105.96655273 C255.75622265 97.9793664 255.75622265 97.9793664 251.75268555 93.90405273 C249.38113575 91.49107848 246.94582164 89.23176234 244.37768555 87.02905273 C241.18586046 84.28783825 238.20965578 81.39719386 235.25268555 78.40405273 C232.35676597 75.47287082 229.45025983 72.64002099 226.31518555 69.96655273 C222.96341396 67.10231156 219.84736763 64.04049056 216.75268555 60.90405273 C211.57030992 55.6712929 206.39637791 50.49984764 200.25268555 46.40405273 Z " fill="#000000" transform="translate(124.747314453125,-0.404052734375)"/>
<path d="M0 0 C0.94742288 -0.00538554 1.89484575 -0.01077108 2.87097842 -0.01631981 C6.04770818 -0.03063477 9.22402334 -0.02348684 12.40077209 -0.01637268 C14.67746313 -0.02207438 16.95415131 -0.02903786 19.23083496 -0.03717041 C25.41673598 -0.0551388 31.60249542 -0.0539265 37.78841472 -0.04822803 C42.95013726 -0.04514155 48.1118324 -0.05122258 53.27355105 -0.05726677 C66.14551566 -0.07212637 79.01738074 -0.0684883 91.88934148 -0.05640347 C103.06565815 -0.04647097 114.24180927 -0.05941179 125.41810041 -0.08333766 C136.89697878 -0.10772595 148.37575083 -0.11693742 159.85466009 -0.11068493 C166.2979843 -0.1073104 172.74117172 -0.10976347 179.18447685 -0.12693596 C185.24281796 -0.14237722 191.30084244 -0.13848059 197.35917091 -0.11963081 C199.58359592 -0.11593718 201.80804424 -0.11907583 204.03244781 -0.1295166 C207.06732798 -0.14267478 210.10115193 -0.13122432 213.13598633 -0.11352539 C214.45870486 -0.1279329 214.45870486 -0.1279329 215.80814499 -0.14263147 C221.23032979 -0.0774978 224.33055159 0.77682643 228.63148499 4.38768005 C232.68778897 9.61027863 232.40546042 15.04108148 231.63148499 21.38768005 C229.45916763 25.97368335 227.19373182 28.25953258 222.63148499 30.38768005 C219.5077394 30.82377297 216.41290825 30.79677453 213.26296997 30.77536011 C212.31554709 30.78074565 211.36812422 30.78613118 210.39199156 30.79167992 C207.21526179 30.80599487 204.03894663 30.79884695 200.86219788 30.79173279 C198.58550684 30.79743449 196.30881866 30.80439797 194.03213501 30.81253052 C187.846234 30.83049891 181.66047455 30.82928661 175.47455525 30.82358813 C170.31283271 30.82050166 165.15113757 30.82658269 159.98941892 30.83262688 C147.11745431 30.84748648 134.24558923 30.84384841 121.37362849 30.83176357 C110.19731182 30.82183108 99.0211607 30.8347719 87.84486956 30.85869776 C76.36599119 30.88308605 64.88721915 30.89229753 53.40830988 30.88604504 C46.96498567 30.88267051 40.52179825 30.88512358 34.07849312 30.90229607 C28.02015201 30.91773733 21.96212753 30.9138407 15.90379906 30.89499092 C13.67937405 30.89129729 11.45492573 30.89443594 9.23052216 30.90487671 C6.19564199 30.91803489 3.16181804 30.90658442 0.12698364 30.8888855 C-0.75482871 30.8984905 -1.63664107 30.90809551 -2.54517502 30.91799158 C-7.96735982 30.85285791 -11.06758162 29.99853368 -15.36851501 26.38768005 C-19.424819 21.16508148 -19.14249045 15.73427863 -18.36851501 9.38768005 C-14.33881483 0.88053521 -8.60187821 -0.05847869 0 0 Z " fill="#000000" transform="translate(146.36851501464844,279.61231994628906)"/>
<path d="M0 0 C0.94742288 -0.00538554 1.89484575 -0.01077108 2.87097842 -0.01631981 C6.04770818 -0.03063477 9.22402334 -0.02348684 12.40077209 -0.01637268 C14.67746313 -0.02207438 16.95415131 -0.02903786 19.23083496 -0.03717041 C25.41673598 -0.0551388 31.60249542 -0.0539265 37.78841472 -0.04822803 C42.95013726 -0.04514155 48.1118324 -0.05122258 53.27355105 -0.05726677 C66.14551566 -0.07212637 79.01738074 -0.0684883 91.88934148 -0.05640347 C103.06565815 -0.04647097 114.24180927 -0.05941179 125.41810041 -0.08333766 C136.89697878 -0.10772595 148.37575083 -0.11693742 159.85466009 -0.11068493 C166.2979843 -0.1073104 172.74117172 -0.10976347 179.18447685 -0.12693596 C185.24281796 -0.14237722 191.30084244 -0.13848059 197.35917091 -0.11963081 C199.58359592 -0.11593718 201.80804424 -0.11907583 204.03244781 -0.1295166 C207.06732798 -0.14267478 210.10115193 -0.13122432 213.13598633 -0.11352539 C214.45870486 -0.1279329 214.45870486 -0.1279329 215.80814499 -0.14263147 C221.23032979 -0.0774978 224.33055159 0.77682643 228.63148499 4.38768005 C232.68778897 9.61027863 232.40546042 15.04108148 231.63148499 21.38768005 C229.45916763 25.97368335 227.19373182 28.25953258 222.63148499 30.38768005 C219.5077394 30.82377297 216.41290825 30.79677453 213.26296997 30.77536011 C212.31554709 30.78074565 211.36812422 30.78613118 210.39199156 30.79167992 C207.21526179 30.80599487 204.03894663 30.79884695 200.86219788 30.79173279 C198.58550684 30.79743449 196.30881866 30.80439797 194.03213501 30.81253052 C187.846234 30.83049891 181.66047455 30.82928661 175.47455525 30.82358813 C170.31283271 30.82050166 165.15113757 30.82658269 159.98941892 30.83262688 C147.11745431 30.84748648 134.24558923 30.84384841 121.37362849 30.83176357 C110.19731182 30.82183108 99.0211607 30.8347719 87.84486956 30.85869776 C76.36599119 30.88308605 64.88721915 30.89229753 53.40830988 30.88604504 C46.96498567 30.88267051 40.52179825 30.88512358 34.07849312 30.90229607 C28.02015201 30.91773733 21.96212753 30.9138407 15.90379906 30.89499092 C13.67937405 30.89129729 11.45492573 30.89443594 9.23052216 30.90487671 C6.19564199 30.91803489 3.16181804 30.90658442 0.12698364 30.8888855 C-0.75482871 30.8984905 -1.63664107 30.90809551 -2.54517502 30.91799158 C-7.96735982 30.85285791 -11.06758162 29.99853368 -15.36851501 26.38768005 C-19.424819 21.16508148 -19.14249045 15.73427863 -18.36851501 9.38768005 C-14.33881483 0.88053521 -8.60187821 -0.05847869 0 0 Z " fill="#000000" transform="translate(146.36851501464844,199.61231994628906)"/>
<path d="M0 0 C0.8103923 -0.00686325 1.62078461 -0.0137265 2.45573425 -0.02079773 C5.12700055 -0.03905643 7.797679 -0.03522959 10.46899414 -0.02954102 C12.33077688 -0.03410333 14.19255794 -0.03940905 16.05433655 -0.04542542 C19.95393724 -0.05435473 23.85333313 -0.0519355 27.75292969 -0.04199219 C32.74428763 -0.03050378 37.73493797 -0.05071288 42.72620296 -0.07990932 C46.57044447 -0.09827698 50.41451659 -0.09797772 54.25879097 -0.0922718 C56.09875036 -0.09211865 57.93872127 -0.09815788 59.77863884 -0.11056328 C62.35417629 -0.12548202 64.92840895 -0.11479036 67.50390625 -0.09765625 C68.25994141 -0.10732422 69.01597656 -0.11699219 69.79492188 -0.12695312 C74.948635 -0.05534882 77.83706255 1.17558504 81.81665039 4.40405273 C85.75291971 8.75466619 86.45548958 12.32182279 86.19946289 18.00561523 C85.41849586 22.89861274 82.92311773 25.5071794 79.18676758 28.5357666 C75.18324938 30.75519018 71.97531964 30.96944785 67.51977539 30.92163086 C66.70923706 30.92864014 65.89869873 30.93564941 65.06359863 30.94287109 C62.39759558 30.96040478 59.73266331 30.94884521 57.06665039 30.93530273 C55.20629677 30.93799899 53.34594452 30.94188252 51.4855957 30.94689941 C47.59190416 30.95278818 43.69858035 30.94425158 39.80493164 30.92553711 C34.82141853 30.90274789 29.83876716 30.91587431 24.85528564 30.93982697 C21.01531517 30.95430177 17.17554799 30.94967125 13.33557129 30.9393158 C11.49841204 30.93665316 9.66123416 30.93990195 7.82409668 30.94923401 C5.25341105 30.95942746 2.68410838 30.94386044 0.11352539 30.92163086 C-0.64093872 30.92972778 -1.39540283 30.93782471 -2.17272949 30.94616699 C-7.31015765 30.86413221 -10.22058262 29.63346382 -14.18334961 26.40405273 C-18.23965359 21.18145416 -17.95732505 15.75065131 -17.18334961 9.40405273 C-13.47214739 1.56929249 -8.23234166 -0.04888681 0 0 Z " fill="#000000" transform="translate(145.183349609375,359.595947265625)"/>
</svg>
