<?xml version="1.0" encoding="UTF-8"?>
<svg version="1.1" xmlns="http://www.w3.org/2000/svg" width="512" height="512">
<path d="M0 0 C4.16347012 3.4964018 8.08707008 7.22822917 12 11 C13.07701172 11.98226562 13.07701172 11.98226562 14.17578125 12.984375 C20.46536293 18.88322115 25.23469978 25.86116307 30 33 C30.63035156 33.93457031 31.26070313 34.86914062 31.91015625 35.83203125 C35.7340925 41.92071334 38.54590444 48.33466425 41.1875 55 C41.5086377 55.78705322 41.82977539 56.57410645 42.16064453 57.38500977 C48.05963386 72.9312093 49.60157113 88.97436016 49.390625 105.453125 C49.3831335 107.21815335 49.37745441 108.98319022 49.37347412 110.74822998 C49.35844604 115.318485 49.31937176 119.88820392 49.2746582 124.45825195 C49.23320245 129.15178176 49.21535749 133.84540107 49.1953125 138.5390625 C49.15284668 147.69293955 49.08488543 156.84642463 49 166 C49.72477539 165.97905273 50.44955078 165.95810547 51.19628906 165.93652344 C54.54737928 165.85229304 57.89824571 165.80100496 61.25 165.75 C62.38953125 165.71648437 63.5290625 165.68296875 64.703125 165.6484375 C79.31052541 165.48244431 90.13453333 170.46357688 100.75 180.3125 C109.89862601 189.97897277 113.47392309 201.29683537 113.38768005 214.38497925 C113.39575836 215.8796756 113.39575836 215.8796756 113.40399987 217.40456784 C113.41821826 220.7175943 113.41119076 224.03021775 113.40405273 227.34326172 C113.4097595 229.72918009 113.41672495 232.11509572 113.42485046 234.50100708 C113.44090568 240.29363672 113.44288928 246.08614165 113.43763756 251.87878881 C113.43358477 256.59051031 113.43505254 261.30219985 113.44038582 266.01391983 C113.44113424 266.6862884 113.44188266 267.35865697 113.44265376 268.05140034 C113.44418535 269.41762423 113.4457237 270.78384812 113.44726873 272.15007199 C113.46097514 284.94267862 113.45556929 297.73522398 113.44408352 310.52782919 C113.43415407 322.21062745 113.44709008 333.89326726 113.47101771 345.57604109 C113.49544739 357.59524396 113.50500704 369.61437316 113.49836498 381.63360035 C113.49488121 388.3721427 113.49704886 395.11056329 113.51461601 401.84908676 C113.53011504 408.18739219 113.52609636 414.52539579 113.50731087 420.86368942 C113.50363318 423.18396447 113.50670939 425.50426203 113.51719666 427.8245163 C113.59505902 446.48192967 111.87315645 459.53810142 98.6875 473.75 C88.13687125 483.7354165 76.32452765 486.46086697 62.18533325 486.38768005 C60.92752167 486.39306559 59.66971008 486.39845113 58.37378299 486.40399987 C54.9077836 486.4183762 51.44202357 486.41423447 47.97601151 486.40683305 C44.22811581 486.40208417 40.48027063 486.41462639 36.73239136 486.42485046 C29.39971185 486.44201037 22.06711814 486.4428843 14.73442377 486.43763756 C8.77175093 486.43358929 2.80910337 486.4350472 -3.15356827 486.44038582 C-4.00355996 486.44113424 -4.85355164 486.44188266 -5.72930066 486.44265376 C-7.45629255 486.44418531 -9.18328443 486.44572366 -10.91027631 486.44726873 C-27.09072645 486.46098368 -43.27112818 486.45556322 -59.4515772 486.44408352 C-74.23829536 486.43415275 -89.02488835 486.44709089 -103.8115872 486.47101771 C-119.01290156 486.49542917 -134.21415767 486.50501152 -149.41549122 486.49836498 C-157.94254708 486.49487724 -166.46950671 486.49707538 -174.9965477 486.51461601 C-182.25555788 486.52936363 -189.51440408 486.52994012 -196.77341114 486.5125451 C-200.47320679 486.5040536 -204.17270982 486.50183978 -207.87248993 486.51719666 C-211.8923506 486.53367483 -215.91151025 486.51884913 -219.93136597 486.50120544 C-221.08800275 486.51081045 -222.24463953 486.52041546 -223.43632591 486.53031152 C-237.6510235 486.40239505 -248.42443567 481.26745466 -258.75 471.6875 C-267.89862601 462.02102723 -271.47392309 450.70316463 -271.38768005 437.61502075 C-271.39306559 436.61855652 -271.39845113 435.62209228 -271.40399987 434.59543216 C-271.41821826 431.2824057 -271.41119076 427.96978225 -271.40405273 424.65673828 C-271.4097595 422.27081991 -271.41672495 419.88490428 -271.42485046 417.49899292 C-271.44090568 411.70636328 -271.44288928 405.91385835 -271.43763756 400.12121119 C-271.43358477 395.40948969 -271.43505254 390.69780015 -271.44038582 385.98608017 C-271.44113424 385.3137116 -271.44188266 384.64134303 -271.44265376 383.94859966 C-271.44418535 382.58237577 -271.4457237 381.21615188 -271.44726873 379.84992801 C-271.46097514 367.05732138 -271.45556929 354.26477602 -271.44408352 341.47217081 C-271.43415407 329.78937255 -271.44709008 318.10673274 -271.47101771 306.42395891 C-271.49544739 294.40475604 -271.50500704 282.38562684 -271.49836498 270.36639965 C-271.49488121 263.6278573 -271.49704886 256.88943671 -271.51461601 250.15091324 C-271.53011504 243.81260781 -271.52609636 237.47460421 -271.50731087 231.13631058 C-271.50363318 228.81603553 -271.50670939 226.49573797 -271.51719666 224.1754837 C-271.59505902 205.51807033 -269.87315645 192.46189858 -256.6875 178.25 C-245.83232481 167.97635205 -233.9011937 165.49671318 -219.375 165.8125 C-218.18003906 165.82603516 -216.98507813 165.83957031 -215.75390625 165.85351562 C-212.835452 165.88853708 -209.91797652 165.93765007 -207 166 C-207.00888245 165.04216614 -207.01776489 164.08433228 -207.0269165 163.09747314 C-207.10872933 153.97976186 -207.16830889 144.862127 -207.20724869 135.74412918 C-207.2279424 131.05875355 -207.25591758 126.37367899 -207.30175781 121.68847656 C-207.3458775 117.14965701 -207.36927316 112.61112319 -207.37950897 108.07210541 C-207.38678385 106.35811628 -207.4009809 104.64413911 -207.42292023 102.93027496 C-207.85712565 67.5365679 -194.50475226 36.42184628 -170 11 C-169.01773438 9.92298828 -169.01773438 9.92298828 -168.015625 8.82421875 C-162.11677885 2.53463707 -155.13883693 -2.23469978 -148 -7 C-147.06542969 -7.63035156 -146.13085938 -8.26070312 -145.16796875 -8.91015625 C-101.47012457 -36.35415281 -40.12596623 -31.83598863 0 0 Z M-143 31 C-143.87269531 31.804375 -144.74539062 32.60875 -145.64453125 33.4375 C-165.71760645 52.69802194 -172.12601443 74.69713707 -175 102 C-175 123.12 -175 144.24 -175 166 C-111.64 166 -48.28 166 17 166 C20.75686548 96.81748828 20.75686548 96.81748828 -8 38 C-9.2065625 36.69095703 -9.2065625 36.69095703 -10.4375 35.35546875 C-28.92016987 16.09306124 -51.93603126 7.92959769 -78 6 C-102.09580131 6 -125.32904993 14.5773902 -143 31 Z M-234.9375 203.75 C-238.91932893 210.02439711 -239.2929068 216.08299622 -239.26069641 223.28512573 C-239.26452196 224.19947234 -239.26834751 225.11381895 -239.27228898 226.05587304 C-239.28257827 229.1087596 -239.27863455 232.16145666 -239.2746582 235.21435547 C-239.27900693 237.40765557 -239.28419062 239.60095416 -239.29014587 241.79425049 C-239.30352992 247.74468086 -239.30411518 253.69504768 -239.30158257 259.64549017 C-239.30051244 264.61565478 -239.30539734 269.58580655 -239.310188 274.5559684 C-239.32191524 286.95320876 -239.32105928 299.35041781 -239.31463119 311.74766006 C-239.30946326 322.50147115 -239.32071565 333.25519162 -239.33972941 344.00898479 C-239.35912545 355.06417052 -239.36706953 366.11931133 -239.36360615 377.17451394 C-239.36179403 383.37587467 -239.36442257 389.57715242 -239.37832069 395.7784996 C-239.39090344 401.6111148 -239.38895053 407.44354875 -239.37590981 413.27616119 C-239.37354545 415.41386349 -239.37627363 417.55157856 -239.38453293 419.6892662 C-239.39501388 422.61335582 -239.38688868 425.53683882 -239.3742218 428.46090698 C-239.38159609 429.30148899 -239.38897037 430.142071 -239.39656812 431.00812519 C-239.34149977 437.07453342 -238.63841749 443.69851266 -234.72509462 448.59530628 C-227.9913187 454.72239241 -219.81922256 454.29017629 -211.28518677 454.26069641 C-210.10949281 454.26452196 -208.93379884 454.26834751 -207.72247779 454.27228898 C-204.4719685 454.2808039 -201.2216041 454.2803923 -197.97109103 454.27610838 C-194.46043131 454.27363752 -190.94979796 454.28265981 -187.43914795 454.29014587 C-180.56628901 454.30288497 -173.69346916 454.30468754 -166.82060041 454.30234561 C-161.23302519 454.30056138 -155.64546183 454.30231435 -150.05788803 454.30657005 C-149.26213093 454.30716524 -148.46637383 454.30776043 -147.64650287 454.30837366 C-146.02982919 454.30958543 -144.41315551 454.31079956 -142.79648183 454.31201603 C-127.64051153 454.32288857 -112.48456348 454.32073046 -97.32859193 454.31463119 C-83.47085625 454.30946252 -69.61319087 454.32071665 -55.7554691 454.33972941 C-41.51817114 454.35911283 -27.28090643 454.3673629 -13.04359519 454.36360615 C-5.05371975 454.36169485 2.93609587 454.3641748 10.92596054 454.37832069 C17.72799875 454.39024191 24.5299403 454.39163111 31.33197986 454.37953053 C34.80046271 454.37364696 38.26876882 454.37252778 41.73723984 454.38453293 C45.50206349 454.3949804 49.26641289 454.38691496 53.03121948 454.3742218 C54.12082218 454.38159609 55.21042488 454.38897037 56.33304584 454.39656812 C62.98240802 454.34944189 70.17632092 454.07402067 75.58581531 449.72509462 C81.09160851 443.71661796 81.29505148 436.3965456 81.26069641 428.71487427 C81.26452196 427.80052766 81.26834751 426.88618105 81.27228898 425.94412696 C81.28257827 422.8912404 81.27863455 419.83854334 81.2746582 416.78564453 C81.27900693 414.59234443 81.28419062 412.39904584 81.29014587 410.20574951 C81.30352992 404.25531914 81.30411518 398.30495232 81.30158257 392.35450983 C81.30051244 387.38434522 81.30539734 382.41419345 81.310188 377.4440316 C81.32191524 365.04679124 81.32105928 352.64958219 81.31463119 340.25233994 C81.30946326 329.49852885 81.32071565 318.74480838 81.33972941 307.99101521 C81.35912545 296.93582948 81.36706953 285.88068867 81.36360615 274.82548606 C81.36179403 268.62412533 81.36442257 262.42284758 81.37832069 256.2215004 C81.39090344 250.3888852 81.38895053 244.55645125 81.37590981 238.72383881 C81.37354545 236.58613651 81.37627363 234.44842144 81.38453293 232.3107338 C81.39501388 229.38664418 81.38688868 226.46316118 81.3742218 223.53909302 C81.38159609 222.69851101 81.38897037 221.857929 81.39656812 220.99187481 C81.34149977 214.92546658 80.63841749 208.30148734 76.72509462 203.40469372 C69.9913187 197.27760759 61.81922256 197.70982371 53.28518677 197.73930359 C52.10949281 197.73547804 50.93379884 197.73165249 49.72247779 197.72771102 C46.4719685 197.7191961 43.2216041 197.7196077 39.97109103 197.72389162 C36.46043131 197.72636248 32.94979796 197.71734019 29.43914795 197.70985413 C22.56628901 197.69711503 15.69346916 197.69531246 8.82060041 197.69765439 C3.23302519 197.69943862 -2.35453817 197.69768565 -7.94211197 197.69342995 C-8.73786907 197.69283476 -9.53362617 197.69223957 -10.35349713 197.69162634 C-11.97017081 197.69041457 -13.58684449 197.68920044 -15.20351817 197.68798397 C-30.35948847 197.67711143 -45.51543652 197.67926954 -60.67140807 197.68536881 C-74.52914375 197.69053748 -88.38680913 197.67928335 -102.2445309 197.66027059 C-116.48182886 197.64088717 -130.71909357 197.6326371 -144.95640481 197.63639385 C-152.94628025 197.63830515 -160.93609587 197.6358252 -168.92596054 197.62167931 C-175.72799875 197.60975809 -182.5299403 197.60836889 -189.33197986 197.62046947 C-192.80046271 197.62635304 -196.26876882 197.62747222 -199.73723984 197.61546707 C-203.50206349 197.6050196 -207.26641289 197.61308504 -211.03121948 197.6257782 C-212.66562353 197.61471677 -212.66562353 197.61471677 -214.33304584 197.60343188 C-221.6710197 197.65543853 -229.6716342 198.00335631 -234.9375 203.75 Z " fill="#000000" transform="translate(335,26)"/>
</svg>
