<?xml version="1.0" encoding="UTF-8"?>
<svg version="1.1" xmlns="http://www.w3.org/2000/svg" width="512" height="512">
<path d="M0 0 C0.76957031 0.67675781 1.53914063 1.35351562 2.33203125 2.05078125 C8.62816998 7.91788157 12.76191193 14.5801352 17 22 C18.11370765 23.92498606 19.22837562 25.84941669 20.34375 27.7734375 C22.92851412 32.23895896 25.50400549 36.70968285 28.07421875 41.18359375 C31.66650429 47.43108519 35.29655105 53.65578388 38.9375 59.875 C44.35955633 69.1447936 49.70205123 78.45832116 55.01922607 87.78845215 C60.22045129 96.9128284 65.48027878 106.00132774 70.78344727 115.06689453 C76.93766742 125.59084625 83.02369996 136.15380137 89.10888672 146.71777344 C92.23680148 152.14659942 95.36858448 157.57319281 98.5 163 C99.75001879 165.16665583 101.00001878 167.3333225 102.25 169.5 C102.86875 170.5725 103.4875 171.645 104.125 172.75 C126 210.66666667 147.875 248.58333333 169.75 286.5 C170.36955566 287.57362793 170.98911133 288.64725586 171.62744141 289.75341797 C172.87024396 291.90814918 174.11211465 294.06341815 175.35302734 296.21923828 C178.24104024 301.23398235 181.1371584 306.24334401 184.06854248 311.23284912 C185.09557558 312.98199117 186.11951942 314.73290587 187.14257812 316.484375 C188.41907035 318.66761687 189.70118938 320.84758354 190.99023438 323.0234375 C202.72133828 343.1413085 208.02351807 364.89941999 202.5 388 C198.59448632 400.25286158 192.71364967 411.49886922 184 421 C183.37480469 421.70511719 182.74960937 422.41023438 182.10546875 423.13671875 C177.06233139 428.5290754 171.37942817 432.33407508 165 436 C164.20851563 436.4640625 163.41703125 436.928125 162.6015625 437.40625 C147.4268803 445.67418316 130.91692393 446.15395403 114.04194641 446.13371277 C112.55067757 446.13558428 111.05940922 446.13788634 109.56814164 446.14057809 C105.49650892 446.14666041 101.42489685 446.14656673 97.35326064 446.14538372 C92.95160397 446.1451788 88.54995378 446.15070709 84.14830017 446.15544128 C75.53439522 446.16372879 66.92049711 446.16649526 58.30658851 446.16705366 C51.30088476 446.16752972 44.29518325 446.16958897 37.28948021 446.17275429 C17.40333403 446.18155567 -2.48280677 446.18617447 -22.36895492 446.18542381 C-23.975259 446.18536388 -23.975259 446.18536388 -25.61401367 446.18530273 C-26.68619874 446.18526185 -27.7583838 446.18522097 -28.86305932 446.18517885 C-46.23358339 446.18477253 -63.60408576 446.19434004 -80.97460356 446.2084411 C-98.83374658 446.2228238 -116.69287904 446.22971024 -134.552028 446.22884732 C-144.56923229 446.22851601 -154.58641384 446.23123433 -164.6036129 446.24202538 C-173.13311454 446.25115531 -181.66258313 446.2532852 -190.19208755 446.24651595 C-194.5383662 446.24326331 -198.88458152 446.24314836 -203.23085403 446.2518692 C-207.22018591 446.25979105 -211.20940484 446.25824549 -215.19873414 446.24958507 C-216.6313863 446.24806249 -218.06404713 446.24981855 -219.49668904 446.25544515 C-244.90174619 446.34850382 -267.64057757 441.46386977 -286.53808594 423.47363281 C-301.15851607 408.73600484 -308.31080215 389.51176665 -308.5 369.0625 C-308.2418279 343.25729782 -295.64997671 324.10278042 -282.98779297 302.41113281 C-279.80633648 296.95162531 -276.65422297 291.47527059 -273.5 286 C-272.25015042 283.83324656 -271.00015017 281.66658002 -269.75 279.5 C-268.821875 277.89125 -268.821875 277.89125 -267.875 276.25 C-256 255.66666667 -244.125 235.08333333 -232.25 214.5 C-231.63116943 213.42733887 -231.01233887 212.35467773 -230.37475586 211.24951172 C-229.12564482 209.08442929 -227.87645871 206.91939018 -226.62719727 204.75439453 C-223.48797691 199.31384294 -220.35009437 193.87252784 -217.21484375 188.4296875 C-211.19252671 177.97793801 -205.15330663 167.53700452 -199.0625 157.125 C-193.98724877 148.44737759 -188.97741233 139.73394432 -184 131 C-178.4599827 121.27884383 -172.86625191 111.59105342 -167.21655273 101.93310547 C-162.97382733 94.67788284 -158.76000503 87.40647504 -154.5625 80.125 C-153.94052734 79.04605469 -153.31855469 77.96710938 -152.67773438 76.85546875 C-150.78470874 73.57057008 -148.89224402 70.28534897 -147 67 C-143.23984097 60.47154254 -139.47813858 53.94401576 -135.70703125 47.421875 C-133.21202673 43.10640473 -130.73243588 38.78254082 -128.26171875 34.453125 C-115.04345135 11.38709015 -101.27908717 -8.91380601 -74.37182617 -16.78759766 C-48.0224436 -23.93781507 -20.41889999 -18.47754447 0 0 Z M-72.875 126.75 C-79.85652452 135.46043979 -81.25041985 143.96620069 -80.6484375 154.79638672 C-80.5993222 155.76483961 -80.55020691 156.7332925 -80.49960327 157.73109245 C-80.34041197 160.82116828 -80.1713727 163.91057747 -80 167 C-79.94702759 167.97408058 -79.89405518 168.94816116 -79.83947754 169.95175934 C-79.45197417 177.05480264 -79.04064035 184.15636827 -78.625 191.2578125 C-78.49422493 193.50690258 -78.36353 195.75599733 -78.23291016 198.00509644 C-77.96152613 202.67239675 -77.68913998 207.33963715 -77.41601562 212.00683594 C-77.06774453 217.959673 -76.72211191 223.91265991 -76.37722778 229.86569405 C-76.10892156 234.49165126 -75.83918588 239.1175243 -75.56903076 243.74337387 C-75.4410151 245.93838793 -75.31344206 248.13342786 -75.18634033 250.32849503 C-74.4167564 263.73267176 -74.4167564 263.73267176 -73.515625 277.12841797 C-73.45407227 277.97870575 -73.39251953 278.82899353 -73.32910156 279.70504761 C-72.34264778 286.58397108 -69.26306406 291.64908996 -63.78515625 295.84765625 C-58.96712356 298.95776488 -53.64770982 299.97442881 -48 299 C-40.64292283 296.31865561 -36.30524712 293.11467498 -32.46875 286.2668457 C-29.94696934 280.23956749 -30.22351106 273.5412865 -29.9375 267.10546875 C-29.86140874 265.61430801 -29.78408976 264.12320949 -29.70562744 262.63217163 C-29.49870657 258.64311697 -29.30726623 254.65345882 -29.1186676 250.66350174 C-28.92023271 246.52315404 -28.70752536 242.38354711 -28.49511719 238.24389648 C-28.40982498 236.57899609 -28.32455887 234.91409435 -28.23931885 233.24919128 C-28.17605785 232.01395249 -28.17605785 232.01395249 -28.11151886 230.75375938 C-27.9842607 228.25556864 -27.85880848 225.75729296 -27.73382568 223.25898743 C-27.23868756 213.3952365 -26.69486752 203.53671143 -26.078125 193.6796875 C-26.00686401 192.53762344 -25.93560303 191.39555939 -25.86218262 190.21888733 C-25.59715119 185.99948761 -25.32985305 181.78027142 -25.05322266 177.56161499 C-24.43038141 168.04337194 -23.88614359 158.54467597 -23.82421875 149.00390625 C-23.8158197 148.27506729 -23.80742065 147.54622833 -23.79876709 146.79530334 C-23.81941323 137.71683447 -26.92040982 131.24385159 -33.0625 124.69140625 C-39.65290658 118.9380876 -47.04259988 117.56916129 -55.57421875 117.6640625 C-62.74108058 118.36685625 -67.9846452 121.56953941 -72.875 126.75 Z M-73.53125 329.0625 C-79.11783124 336.4320327 -80.82706054 343.86637492 -80 353 C-77.94085805 361.9448077 -72.66645801 367.41041692 -65.5625 372.875 C-57.85656479 376.25809351 -50.42779854 376.93433066 -42.45703125 374.09375 C-34.85282747 370.68853923 -30.39933479 365.86989483 -26.0625 358.875 C-23.42263599 351.74244816 -23.72896987 341.73028189 -26.89453125 334.8046875 C-30.99177279 328.11590449 -36.22573636 322.79913899 -43.85546875 320.421875 C-55.12737101 318.20445161 -65.6792249 320.46971782 -73.53125 329.0625 Z " fill="#000000" transform="translate(308,43)"/>
</svg>
